<svg width="40" height="40" viewBox="0 0 40 40" fill="none" xmlns="http://www.w3.org/2000/svg">
  <rect width="40" height="40" rx="8" fill="#1877F2"/>
  <path d="M28 20C28 15.5817 24.4183 12 20 12C15.5817 12 12 15.5817 12 20C12 23.993 14.9229 27.3027 18.75 27.9028V22.3438H16.7188V20H18.75V18.1562C18.75 16.1562 19.9442 15.0625 21.7715 15.0625C22.6442 15.0625 23.5625 15.2188 23.5625 15.2188V17.1875H22.5538C21.56 17.1875 21.25 17.7812 21.25 18.3906V20H23.4688L23.1141 22.3438H21.25V27.9028C25.0771 27.3027 28 23.993 28 20Z" fill="white"/>
</svg>